<?xml version="1.0" standalone="no"?>
<!DOCTYPE svg PUBLIC "-//W3C//DTD SVG 20010904//EN"
 "http://www.w3.org/TR/2001/REC-SVG-20010904/DTD/svg10.dtd">
<svg version="1.0" xmlns="http://www.w3.org/2000/svg"
 width="700.000000pt" height="700.000000pt" viewBox="0 0 700.000000 700.000000"
 preserveAspectRatio="xMidYMid meet">
<metadata>
Created by potrace 1.11, written by Peter Selinger 2001-2013
</metadata>
<g transform="translate(0.000000,700.000000) scale(0.100000,-0.100000)"
fill="#000000" stroke="none">
<path d="M3265 6994 c-450 -45 -721 -107 -1070 -246 -1028 -409 -1820 -1316
-2089 -2393 -76 -303 -101 -518 -101 -855 0 -482 73 -866 247 -1305 409 -1028
1316 -1820 2393 -2089 303 -76 518 -101 855 -101 482 0 866 73 1305 247 1028
409 1820 1316 2089 2393 76 303 101 518 101 855 0 337 -25 552 -101 855 -207
831 -716 1555 -1439 2047 -455 310 -955 496 -1540 574 -104 14 -564 27 -650
18z m-910 -1892 c289 -55 486 -170 604 -352 147 -227 144 -617 -5 -842 -25
-37 -66 -86 -92 -108 -60 -51 -167 -104 -257 -126 l-69 -17 59 -17 c369 -104
583 -374 602 -756 23 -464 -214 -779 -670 -894 -182 -45 -268 -50 -952 -50
l-635 0 0 1596 0 1596 653 -5 c605 -4 660 -6 762 -25z m2017 -646 l3 -674 715
674 715 674 274 0 c245 0 272 -2 261 -15 -7 -9 -361 -343 -787 -742 -425 -400
-773 -729 -773 -732 1 -3 378 -386 839 -851 l839 -845 -276 -3 -277 -2 -767
767 -768 768 0 -768 0 -767 -215 0 -215 0 0 1595 0 1595 215 0 215 0 2 -674z"/>
<path d="M1370 4290 l0 -482 413 5 c457 4 487 8 623 73 171 81 256 267 224
489 -28 192 -141 312 -350 370 -57 16 -118 19 -487 22 l-423 4 0 -481z"/>
<path d="M1370 2876 l0 -586 383 0 c216 0 421 5 472 11 283 35 440 156 502
389 23 88 23 290 0 379 -50 187 -175 305 -386 364 -71 19 -105 21 -523 25
l-448 3 0 -585z"/>
</g>
</svg>
